<svg width="200" height="200" viewBox="0 0 200 200" fill="none" xmlns="http://www.w3.org/2000/svg">
<g clip-path="url(#clip0_9724_449)">
<rect width="200" height="200" rx="30" fill="black"/>
<path d="M-2 185L100 87L203 185" stroke="white" stroke-width="7"/>
<path d="M100 172L100 203" stroke="white" stroke-width="7"/>
<path d="M100 149L100 167" stroke="white" stroke-width="7"/>
<path d="M100 134L100 146" stroke="white" stroke-width="7"/>
<path d="M100 126L100 132" stroke="white" stroke-width="7"/>
<path d="M100 118L100 123" stroke="white" stroke-width="7"/>
<path d="M100 113L100 116" stroke="white" stroke-width="7"/>
<path d="M100 108L100 111" stroke="white" stroke-width="7"/>
<path d="M100 103L100 106" stroke="white" stroke-width="7"/>
<path d="M100 98L100 101" stroke="white" stroke-width="7"/>
<path d="M100 93L100 96" stroke="white" stroke-width="7"/>
<path d="M-8 20L11.5 33L24 25.5L36 42.5H50.5L60.5 38.5L69 51.5L81 71L89 82L100 85.5L122 82L142.5 71L155 60.5H170L179.5 54.5L187.5 46.5L189.5 34.5L195.5 29.5H202" stroke="white" stroke-width="7"/>
<path d="M-0.5 86.5H200.5" stroke="white" stroke-width="7"/>
</g>
<defs>
<clipPath id="clip0_9724_449">
<rect width="200" height="200" rx="30" fill="white"/>
</clipPath>
</defs>
</svg>
